<?xml version="1.0" encoding="UTF-8" standalone="no"?>
<!-- Generator: Adobe Illustrator 27.5.0, SVG Export Plug-In . SVG Version: 6.00 Build 0)  -->

<svg
   version="1.1"
   id="Ñëîé_2"
   x="0px"
   y="0px"
   viewBox="0 0 153797.44 154288.55"
   xml:space="preserve"
   sodipodi:docname="25581827_2203_w030_n002_341b_p1_341.svg"
   width="153797.44"
   height="154288.55"
   xmlns:inkscape="http://www.inkscape.org/namespaces/inkscape"
   xmlns:sodipodi="http://sodipodi.sourceforge.net/DTD/sodipodi-0.dtd"
   xmlns:xlink="http://www.w3.org/1999/xlink"
   xmlns="http://www.w3.org/2000/svg"
   xmlns:svg="http://www.w3.org/2000/svg"><defs
   id="defs877" /><sodipodi:namedview
   id="namedview877"
   pagecolor="#ffffff"
   bordercolor="#000000"
   borderopacity="0.25"
   inkscape:showpageshadow="2"
   inkscape:pageopacity="0.0"
   inkscape:pagecheckerboard="0"
   inkscape:deskcolor="#d1d1d1"><inkscape:page
     x="0"
     y="0"
     width="153797.44"
     height="154288.55"
     id="page2"
     margin="0"
     bleed="0" /></sodipodi:namedview>

<g
   id="g99"
   transform="matrix(2.6910832,0,0,2.6910832,-67397.75,-45278.698)">
	<linearGradient
   id="SVGID_1_"
   gradientUnits="userSpaceOnUse"
   x1="379.18439"
   y1="157.8091"
   x2="428.67499"
   y2="56.743599">
		<stop
   offset="0"
   style="stop-color:#3E1E43"
   id="stop1" />
		<stop
   offset="0.1667"
   style="stop-color:#402147"
   id="stop2" />
		<stop
   offset="0.3302"
   style="stop-color:#482853"
   id="stop3" />
		<stop
   offset="0.4924"
   style="stop-color:#543566"
   id="stop4" />
		<stop
   offset="0.6529"
   style="stop-color:#654782"
   id="stop5" />
		<stop
   offset="0.7122"
   style="stop-color:#6D4F8E"
   id="stop6" />
	</linearGradient>
	<path
   style="fill:url(#SVGID_1_)"
   d="m 470.035,100.405 c 1.163,-7.807 -4.319,-7.64 -4.319,-7.64 0,0 -0.166,-10.049 -10.049,-11.71 -9.883,-1.661 -23.503,8.969 -23.503,8.969 -1.155,-2.275 -2.172,-4.628 -3.067,-6.995 2.685,0.147 -0.406,-5.056 -0.406,-5.056 0,0 1.289,0.797 1.564,-0.588 0.274,-1.382 -4.245,-4.458 -4.852,-7.11 -1.932,-9.317 -1.87,-16.862 -0.38,-17.955 1.365,-1.001 2.206,-2.101 2.688,-2.892 0.345,-0.567 0.15,-1.305 -0.437,-1.614 l -0.59,-0.311 0.975,-1.231 c 0.341,-0.431 0.33,-1.043 -0.033,-1.456 -2.617,-2.972 -7.699,-10.002 -9.911,-16.331 -1.784,-5.107 -3.933,-9.347 -4.927,-11.202 -0.306,-0.572 -1.036,-0.777 -1.583,-0.43 -2.577,1.633 -3.953,3.992 -3.953,3.992 -3.461,0.281 -6.688,0.68 -9.614,1.129 -5.184,0.314 -10.71,-1.394 -10.215,0.701 0,0 -2.829,-0.036 -1.74,1.698 -2.933,0.741 -4.592,1.288 -4.592,1.288 -2.557,-2.335 -4.817,-3.033 -6.032,-3.239 -0.548,-0.093 -1.076,0.229 -1.255,0.755 -1.625,4.777 -1.884,11.996 -3.842,16.851 -1.437,3.564 -2.914,6.013 -3.687,7.184 -0.308,0.466 -0.227,1.084 0.184,1.462 l 2.174,1.403 -0.594,0.679 c -0.288,0.329 -0.187,0.841 0.204,1.036 l 1.885,0.943 -0.547,0.308 c -0.522,0.294 -0.744,0.948 -0.473,1.482 0.788,1.553 2.845,3.767 3.29,8.397 0.554,5.758 -4.54,26.908 -9.523,38.203 -4.983,11.295 -1.993,18.825 -1.993,18.825 0,0 -1.749,-1.662 -1.827,0.919 -0.125,4.125 3.359,7.212 6.546,11.314 1.034,1.331 2.363,2.364 3.853,3.056 1.219,0.649 2.844,1.142 4.73,1.51 -0.048,0.081 -0.1,0.164 -0.141,0.24 -0.256,0.483 0.009,1.074 0.537,1.215 1.997,0.536 7.135,1.542 14.417,0.287 0.494,-0.085 0.793,-0.554 0.699,-1.012 2.664,-0.136 5.275,-0.378 7.649,-0.699 2.743,-0.371 5.504,-0.552 8.272,-0.552 h 6.951 c 1.302,0 3.007,0.179 5.029,0.386 -0.138,0.224 -0.261,0.439 -0.364,0.635 -0.275,0.518 0.042,1.143 0.619,1.242 7.282,1.255 12.42,0.25 14.417,-0.287 0.519,-0.139 0.781,-0.712 0.546,-1.191 0.255,-0.022 0.507,-0.04 0.765,-0.066 9.314,-0.956 8.387,-0.814 10.054,-1.034 1.785,-0.203 3.551,-0.504 5.293,-0.923 25.029,-6.029 22.191,-27.359 22.191,-27.359 2.156,-3.239 -1.083,-7.226 -1.083,-7.226 z"
   id="path6" />
	<path
   style="opacity:0.33;fill:#a62774"
   d="m 397.385,47.879 c 0.891,-0.159 1.768,3.134 1.739,3.343 -0.029,0.208 -2.525,1.176 -2.681,0.238 -0.156,-0.94 0.011,-3.415 0.942,-3.581 z"
   id="path7" />
	<path
   style="opacity:0.65;fill:#caa1e2"
   d="m 389.491,31.263 c 5.094,0.408 5.649,15.072 5.259,18.04 -0.389,2.968 -3.445,10.236 -12.421,9.825 -8.976,-0.411 -9.876,-8.941 -6.203,-18.116 3.673,-9.176 9.784,-10.035 13.365,-9.749 z"
   id="path8" />
	<path
   style="opacity:0.33;fill:#a62774"
   d="m 402.514,50.303 c 0,0 3.74,4.195 10.418,2.055 6.531,-2.093 5.199,-9.219 5.199,-9.219 z"
   id="path9" />
	<path
   style="opacity:0.33;fill:#a62774"
   d="m 392.958,52.046 c 0,0 -3.506,5.9 -10.865,4.166 -7.358,-1.734 -6.707,-8.571 -6.707,-8.571 z"
   id="path10" />
	<path
   style="fill:#180328"
   d="m 399.692,50.299 0.118,-0.218 c 0.332,-0.612 0.38,-1.334 0.132,-1.984 -1.01,-2.65 -3.153,-10.231 3.736,-13.855 6.737,-3.543 11.722,0.048 13.519,3.105 0.54,0.918 1.617,1.368 2.648,1.103 0,0 -1.489,2.402 -1.713,4.689 -0.225,2.287 -14.068,7.833 -15.617,7.164 -1.55,-0.669 -2.823,-0.004 -2.823,-0.004 z"
   id="path11" />
	<path
   style="fill:#180328"
   d="m 395.591,50.936 -0.173,-0.177 c -0.486,-0.497 -0.731,-1.179 -0.671,-1.872 0.245,-2.826 -0.571,-10.721 -8.219,-12.171 -7.059,-1.339 -11.063,3.219 -11.954,6.652 -0.267,1.031 -0.548,1.668 -2.244,1.786 0,0 2.213,0.349 3.056,2.487 0,0 11.267,-0.753 15.273,-0.466 0.584,0.042 2.133,5.007 2.299,4.871 1.306,-1.068 2.633,-1.11 2.633,-1.11 z"
   id="path12" />
	<g
   id="g25">
		<defs
   id="defs12"><path
     id="SVGID_00000096030012517205198450000010389633880645970834_"
     d="m 400.633,48.472 c -2.249,-3.32 -2.27,-12.458 5.426,-14.561 7.696,-2.103 12.568,4.086 12.014,10.354 -0.195,2.214 -1.408,5.869 -5.211,7.205 -2.564,0.901 -5.36,1.031 -7.905,0.077 -1.581,-0.593 -3.291,-1.55 -4.324,-3.075 z" /></defs>
		<clipPath
   id="SVGID_00000176004990739981159410000006255578326985044893_">
			<use
   xlink:href="#SVGID_00000096030012517205198450000010389633880645970834_"
   style="overflow:visible"
   id="use12" />
		</clipPath>
		
			<linearGradient
   id="SVGID_00000068664928622308085120000009413998118002183576_"
   gradientUnits="userSpaceOnUse"
   x1="409.28351"
   y1="52.569599"
   x2="409.28351"
   y2="33.484402">
			<stop
   offset="0"
   style="stop-color:#FFCD00"
   id="stop12" />
			<stop
   offset="1"
   style="stop-color:#FF9000"
   id="stop13" />
		</linearGradient>
		
			<path
   style="fill:url(#SVGID_00000068664928622308085120000009413998118002183576_)"
   d="m 400.633,48.472 c -2.249,-3.32 -2.27,-12.458 5.426,-14.561 7.696,-2.103 13.173,3.946 12.509,10.203 0,0 4.519,9.59 -9.856,8.345 0,-0.001 -5.754,-0.555 -8.079,-3.987 z"
   clip-path="url(#SVGID_00000176004990739981159410000006255578326985044893_)"
   id="path13" />
		<g
   clip-path="url(#SVGID_00000176004990739981159410000006255578326985044893_)"
   id="g24">
			<g
   id="g23">
				
					<linearGradient
   id="SVGID_00000022531512337236354660000008451619847442316211_"
   gradientUnits="userSpaceOnUse"
   x1="406.38129"
   y1="48.5494"
   x2="406.38129"
   y2="33.066898">
					<stop
   offset="0"
   style="stop-color:#9D0000"
   id="stop14" />
					<stop
   offset="0.1594"
   style="stop-color:#820400"
   id="stop15" />
					<stop
   offset="0.3898"
   style="stop-color:#620800"
   id="stop16" />
					<stop
   offset="0.6118"
   style="stop-color:#4B0B00"
   id="stop17" />
					<stop
   offset="0.82"
   style="stop-color:#3D0D00"
   id="stop18" />
					<stop
   offset="1"
   style="stop-color:#380E00"
   id="stop19" />
				</linearGradient>
				<circle
   style="fill:url(#SVGID_00000022531512337236354660000008451619847442316211_)"
   cx="406.38101"
   cy="40.807999"
   r="7.7410002"
   id="circle19" />
				
					<linearGradient
   id="SVGID_00000146461208253251877160000005675151871185941147_"
   gradientUnits="userSpaceOnUse"
   x1="406.00391"
   y1="54.913399"
   x2="406.00391"
   y2="43.359299">
					<stop
   offset="0"
   style="stop-color:#000000"
   id="stop20" />
					<stop
   offset="0.4777"
   style="stop-color:#818100"
   id="stop21" />
					<stop
   offset="0.8383"
   style="stop-color:#DBDB00"
   id="stop22" />
					<stop
   offset="1"
   style="stop-color:#FFFF00"
   id="stop23" />
				</linearGradient>
				<path
   style="opacity:0.32;fill:url(#SVGID_00000146461208253251877160000005675151871185941147_)"
   d="m 411.781,49.136 c 0,3.191 -2.587,5.777 -5.777,5.777 -3.191,0 -5.777,-2.586 -5.777,-5.777 0,-3.191 2.586,-5.777 5.777,-5.777 3.19,0 5.777,2.587 5.777,5.777 z"
   id="path23" />
			</g>
		</g>
		<path
   style="opacity:0.47;fill:#834a2c"
   d="m 400.024,50.947 c 0,0 -3.484,-13.607 7.513,-14.442 10.997,-0.835 16.152,18.339 16.152,18.339 0,0 -0.237,-23.621 -4.781,-29.862 -4.544,-6.241 -7.349,-16.269 -14.118,-12.007 -6.77,4.261 -9.997,18.729 -9.997,18.729 z"
   clip-path="url(#SVGID_00000176004990739981159410000006255578326985044893_)"
   id="path24" />
	</g>
	<g
   id="g38">
		<defs
   id="defs25"><path
     id="SVGID_00000011016057177297288640000011647783263772840097_"
     d="m 394.377,48.583 c 0.775,-4.429 -2.768,-11.572 -10.187,-11.461 -7.419,0.111 -9.262,5.899 -8.803,10.52 0.314,3.163 2.719,8.13 9.79,8.11 4.202,-0.012 8.113,-2.44 9.071,-6.531 0.047,-0.207 0.09,-0.42 0.129,-0.638 z" /></defs>
		<clipPath
   id="SVGID_00000080202845341740336610000017736506573300302984_">
			<use
   xlink:href="#SVGID_00000011016057177297288640000011647783263772840097_"
   style="overflow:visible"
   id="use25" />
		</clipPath>
		
			<linearGradient
   id="SVGID_00000082328206369675958610000015768734967901965205_"
   gradientUnits="userSpaceOnUse"
   x1="384.5329"
   y1="56.442799"
   x2="384.5329"
   y2="37.120399">
			<stop
   offset="0"
   style="stop-color:#FFCD00"
   id="stop25" />
			<stop
   offset="1"
   style="stop-color:#FF9000"
   id="stop26" />
		</linearGradient>
		
			<path
   style="fill:url(#SVGID_00000082328206369675958610000015768734967901965205_)"
   d="m 394.377,48.583 c 0.775,-4.429 -2.768,-11.572 -10.187,-11.461 -7.419,0.111 -10.174,5.871 -9.509,10.467 0,0 -1.718,11.842 13.496,8.136 -0.001,0 5.126,-1.01 6.2,-7.142 z"
   clip-path="url(#SVGID_00000080202845341740336610000017736506573300302984_)"
   id="path26" />
		<g
   clip-path="url(#SVGID_00000080202845341740336610000017736506573300302984_)"
   id="g37">
			<g
   id="g36">
				
					<linearGradient
   id="SVGID_00000178198860212327209610000004171752610314090430_"
   gradientUnits="userSpaceOnUse"
   x1="386.3739"
   y1="52.105701"
   x2="386.3739"
   y2="36.473">
					<stop
   offset="0"
   style="stop-color:#9D0000"
   id="stop27" />
					<stop
   offset="0.1594"
   style="stop-color:#820400"
   id="stop28" />
					<stop
   offset="0.3898"
   style="stop-color:#620800"
   id="stop29" />
					<stop
   offset="0.6118"
   style="stop-color:#4B0B00"
   id="stop30" />
					<stop
   offset="0.82"
   style="stop-color:#3D0D00"
   id="stop31" />
					<stop
   offset="1"
   style="stop-color:#380E00"
   id="stop32" />
				</linearGradient>
				<circle
   style="fill:url(#SVGID_00000178198860212327209610000004171752610314090430_)"
   cx="386.37399"
   cy="44.289001"
   r="7.816"
   id="circle32" />
				
					<linearGradient
   id="SVGID_00000070083766015040047410000006335801188753448613_"
   gradientUnits="userSpaceOnUse"
   x1="389.22089"
   y1="56.588501"
   x2="389.22089"
   y2="45.034302">
					<stop
   offset="0"
   style="stop-color:#000000"
   id="stop33" />
					<stop
   offset="0.4777"
   style="stop-color:#818100"
   id="stop34" />
					<stop
   offset="0.8383"
   style="stop-color:#DBDB00"
   id="stop35" />
					<stop
   offset="1"
   style="stop-color:#FFFF00"
   id="stop36" />
				</linearGradient>
				<path
   style="opacity:0.32;fill:url(#SVGID_00000070083766015040047410000006335801188753448613_)"
   d="m 394.998,50.811 c 0,3.191 -2.586,5.777 -5.777,5.777 -3.191,0 -5.777,-2.587 -5.777,-5.777 0,-3.191 2.587,-5.777 5.777,-5.777 3.191,0 5.777,2.587 5.777,5.777 z"
   id="path36" />
			</g>
		</g>
		<path
   style="opacity:0.47;fill:#834a2c"
   d="m 371.787,53.106 c 0,0 2.419,-12.555 13.416,-13.39 10.997,-0.835 12.994,21.28 12.994,21.28 0,0 2.922,-26.562 -1.622,-32.803 -4.544,-6.241 -7.348,-16.268 -14.118,-12.007 -6.77,4.262 -9.997,18.729 -9.997,18.729 z"
   clip-path="url(#SVGID_00000080202845341740336610000017736506573300302984_)"
   id="path37" />
	</g>
	<path
   style="fill:#3e1e43"
   d="m 396.449,29.091 c 0.113,1.154 5.739,2.801 6.41,0.141 0.67,-2.66 -6.669,-2.784 -6.41,-0.141 z"
   id="path38" />
	<path
   style="fill:#3e1e43"
   d="m 392.059,29.715 c -0.369,-1.375 -6.822,-1.098 -6.406,1.831 0.415,2.929 6.775,-0.455 6.406,-1.831 z"
   id="path39" />
	<g
   id="g42">
		<path
   style="fill:#180328"
   d="m 400.572,56.772 -2.115,-1.673 -0.253,-2.983 c -0.015,-0.179 -0.172,-0.314 -0.352,-0.297 -0.179,0.015 -0.312,0.173 -0.297,0.352 l 0.255,3.002 -1.161,1.578 c -0.106,0.145 -0.075,0.348 0.069,0.455 0.048,0.035 0.101,0.055 0.155,0.061 0.112,0.013 0.228,-0.033 0.3,-0.13 l 1.034,-1.405 1.962,1.551 c 0.049,0.039 0.106,0.061 0.164,0.068 0.108,0.012 0.22,-0.03 0.292,-0.121 0.111,-0.142 0.087,-0.346 -0.053,-0.458 z"
   id="path40" />
		<path
   style="fill:#d146a2"
   d="m 398.451,50.846 c -0.447,0.152 -0.926,0.24 -1.394,0.181 -0.204,-0.026 -0.41,0.029 -0.556,0.261 -0.276,0.438 0.481,1.032 1.004,1.373 0.264,0.172 0.61,0.13 0.826,-0.1 0.44,-0.467 1.065,-1.251 0.688,-1.597 -0.186,-0.17 -0.385,-0.18 -0.568,-0.118 z"
   id="path41" />
		<path
   style="opacity:0.42;fill:#a62774"
   d="m 397.504,52.661 c 0.264,0.172 0.61,0.13 0.826,-0.1 0.352,-0.374 0.814,-0.948 0.794,-1.341 -0.136,0.332 -0.502,0.925 -1.405,0.984 -0.654,0.043 -1.003,-0.199 -1.191,-0.442 0.182,0.333 0.628,0.672 0.976,0.899 z"
   id="path42" />
	</g>
	<path
   style="fill:#ffb0ba"
   d="m 412.16,24.553 c -1.46,-1.318 -0.875,-4.374 0,-4.208 0.875,0.167 2.392,6.368 0,4.208 z"
   id="path43" />
	<path
   style="fill:#ffb0ba"
   d="m 376.15,30.119 c 1.155,-1.592 -0.05,-4.46 -0.872,-4.117 -0.821,0.344 -1.021,6.725 0.872,4.117 z"
   id="path44" />
	<path
   style="opacity:0.33;fill:#a62774"
   d="m 424.668,52.76 c -1.786,2.156 -10.351,11.673 -23.785,13.512 -14.169,1.939 -27.178,-5.132 -30.92,-10.312 0.923,1.488 2.107,3.578 2.433,6.962 0.554,5.758 -4.54,26.908 -9.523,38.203 -4.983,11.295 -1.993,18.825 -1.993,18.825 0,0 -1.749,-1.662 -1.827,0.919 -0.125,4.125 3.359,7.212 6.546,11.314 1.034,1.331 2.363,2.364 3.853,3.056 1.219,0.649 2.844,1.142 4.73,1.51 -0.048,0.081 -0.1,0.164 -0.141,0.24 -0.256,0.483 0.009,1.074 0.537,1.215 1.997,0.536 7.135,1.542 14.417,0.287 0.494,-0.085 0.793,-0.554 0.699,-1.012 2.664,-0.136 5.275,-0.378 7.648,-0.699 2.743,-0.371 5.504,-0.552 8.272,-0.552 h 6.951 c 1.302,0 3.007,0.179 5.029,0.386 -0.138,0.224 -0.261,0.439 -0.364,0.635 -0.275,0.518 0.042,1.143 0.619,1.242 7.282,1.255 12.42,0.25 14.417,-0.287 0.519,-0.139 0.781,-0.712 0.546,-1.191 0.255,-0.022 0.507,-0.04 0.765,-0.066 9.314,-0.956 8.387,-0.814 10.054,-1.034 1.785,-0.203 3.551,-0.504 5.293,-0.923 25.029,-6.029 22.191,-27.359 22.191,-27.359 -0.831,11.544 -7.641,10.88 -7.641,10.88 2.658,-6.395 0.914,-14.866 0.914,-14.866 0.258,15.427 -14.451,18.354 -14.451,18.354 0,0 -16.648,-33.222 -11.173,-36.289 -3.883,2.197 -6.599,4.315 -6.599,4.315 0,0 5.232,7.474 7.225,20.43 1.993,12.956 -14.118,19.267 -15.696,8.554 -1.578,-10.713 6.312,-18.105 6.312,-18.105 -3.607,-1.764 -2.804,-12.5 -2.744,-13.244 -0.097,1.176 -2.479,28.501 -13.415,23.625 -11.177,-4.983 -9.42,-29.067 -9.42,-29.067 -5.481,11.046 -13.039,-0.664 -13.039,-0.664 8.056,20.513 -3.073,37.455 -13.039,29.233 -9.966,-8.222 -9.883,-22.839 -8.139,-30.396 1.744,-7.558 7.309,-18.943 15.531,-12.963 8.222,5.979 13.611,6.728 20.753,0.582 7.142,-6.146 17.282,-8.049 18.455,-0.078 0.095,0.646 0.199,1.18 0.309,1.633 -1.623,-8.184 -1.688,-14.87 -0.59,-16.805 z"
   id="path45" />
	<path
   style="opacity:0.65;fill:#a62774"
   d="m 398.64,69.345 c 7.45,0.047 18.131,-9.21 21.204,-11.801 -4.129,3.467 -10.79,8.431 -19.149,9.575 -11.027,1.509 -21.163,-3.286 -26.963,-7.553 5.272,4.287 16.094,9.723 24.908,9.779 z"
   id="path46" />
	<path
   style="opacity:0.33;fill:#a62774"
   d="m 447.251,130.58 c -0.332,-3.876 -4.872,-2.104 -4.872,-2.104 6.6,-13.525 -9.443,-37.32 -10.18,-38.4 0.439,0.647 5.288,8.014 7.19,20.378 0.136,0.885 0.181,1.736 0.158,2.556 0.485,3.389 0.624,6.793 0.164,9.929 -1.96,13.369 -6.564,14.042 -6.882,14.072 0.249,-0.022 0.495,-0.039 0.746,-0.065 1.421,-0.146 2.6,-0.266 3.59,-0.366 10e-4,10e-4 10.419,-2.124 10.086,-6 z"
   id="path47" />
	<path
   style="opacity:0.65;fill:#a62774"
   d="m 419.773,137.141 c 0.539,-1.109 1.618,-1.907 3.209,-2.373 0.172,-0.05 0.271,-0.231 0.221,-0.403 -0.05,-0.172 -0.23,-0.269 -0.404,-0.221 -1.777,0.52 -2.992,1.435 -3.614,2.719 -0.288,0.596 -0.414,1.203 -0.45,1.767 0.219,0.033 0.438,0.067 0.653,0.096 0.026,-0.51 0.128,-1.056 0.385,-1.585 z"
   id="path48" />
	<path
   style="opacity:0.65;fill:#a62774"
   d="m 428.445,135.775 c 0.178,0.019 0.34,-0.108 0.36,-0.286 0.02,-0.178 -0.107,-0.339 -0.285,-0.36 -0.039,-0.007 -3.889,-0.393 -4.725,3.952 0.225,0.005 0.443,0.008 0.66,0.009 0.763,-3.622 3.854,-3.33 3.99,-3.315 z"
   id="path49" />
	<path
   style="opacity:0.65;fill:#a62774"
   d="m 382.475,135.958 c -1.227,-1.318 -3.4,-0.954 -3.491,-0.937 -0.177,0.031 -0.295,0.2 -0.264,0.376 0.031,0.177 0.2,0.293 0.376,0.264 0.02,-0.003 1.921,-0.318 2.905,0.741 0.539,0.58 0.715,1.485 0.538,2.686 0.215,-0.002 0.435,-0.007 0.657,-0.014 0.178,-1.354 -0.058,-2.404 -0.721,-3.116 z"
   id="path50" />
	<path
   style="opacity:0.65;fill:#a62774"
   d="m 384.029,134.136 c -0.176,-0.035 -0.347,0.083 -0.38,0.259 -0.034,0.177 0.082,0.347 0.259,0.381 1.482,0.282 2.54,0.91 3.145,1.865 0.438,0.692 0.566,1.449 0.583,2.063 0.214,-0.03 0.436,-0.068 0.653,-0.102 -0.029,-0.687 -0.19,-1.523 -0.683,-2.303 -0.704,-1.118 -1.908,-1.845 -3.577,-2.163 z"
   id="path51" />
	<path
   style="opacity:0.65;fill:#a62774"
   d="m 418.073,133.68 c 0,0 -1.163,-4.263 1.55,-8.914 2.713,-4.651 5.537,-22.313 5.537,-22.313 0,0 -3.267,15.613 -7.641,23.364 0,0 0.703,3.377 -2.389,3.765 -0.561,0.07 -1.182,0.072 -1.802,0.01 -0.38,-0.46 -0.548,-0.922 -0.478,-1.375 0.159,-1.028 1.4,-1.754 1.413,-1.761 0.155,-0.09 0.209,-0.288 0.12,-0.444 -0.089,-0.156 -0.288,-0.208 -0.443,-0.12 -0.062,0.035 -1.523,0.884 -1.732,2.222 -0.071,0.457 0.026,0.908 0.257,1.349 -0.656,-0.138 -1.271,-0.366 -1.782,-0.685 -0.363,-0.557 -0.501,-1.084 -0.388,-1.566 0.203,-0.863 1.11,-1.348 1.119,-1.353 0.159,-0.083 0.22,-0.28 0.138,-0.439 -0.082,-0.159 -0.278,-0.221 -0.438,-0.138 -0.048,0.025 -1.176,0.621 -1.451,1.776 -0.048,0.202 -0.059,0.408 -0.049,0.615 -0.454,-0.915 -0.304,-2.177 0.93,-3.849 0,0 -12.181,-20.679 -6.118,-41.608 -5.481,11.046 -13.039,-0.664 -13.039,-0.664 0,0 13.454,34.715 10.381,43.02 0,0 2.325,0.457 2.242,2.907 -0.012,0.342 -0.141,0.694 -0.357,1.036 0.017,-0.401 -0.057,-0.776 -0.228,-1.121 -0.579,-1.161 -2.018,-1.522 -2.079,-1.537 -0.173,-0.037 -0.349,0.065 -0.392,0.239 -0.043,0.175 0.064,0.351 0.239,0.393 0.012,0.003 1.211,0.308 1.652,1.198 0.242,0.489 0.214,1.084 -0.082,1.767 -0.445,0.389 -0.97,0.696 -1.544,0.92 0.191,-0.6 0.174,-1.141 -0.059,-1.614 -0.559,-1.138 -2.14,-1.399 -2.207,-1.41 -0.178,-0.025 -0.343,0.093 -0.371,0.271 -0.028,0.177 0.092,0.344 0.27,0.372 0.013,0.002 1.317,0.22 1.726,1.056 0.204,0.418 0.139,0.95 -0.169,1.575 -1.757,0.406 -3.738,-0.023 -4.911,-2.191 0,0 -18.728,-7.433 -22.88,-20.665 0,0 1.938,8.25 10.021,14.395 8.083,6.146 6.278,12.679 6.278,12.679 0,0 -1.959,-7.087 -13.309,0.609 0,0 10.898,-6.356 14.086,2.026 2.664,-0.136 5.275,-0.378 7.648,-0.699 2.743,-0.371 5.504,-0.552 8.272,-0.552 h 6.951 c 1.302,0 3.007,0.179 5.029,0.386 2.086,-4.982 8.01,-4.373 12.661,-1.217 -10e-4,0.002 -6.922,-6.642 -12.182,-1.715 z"
   id="path52" />
	<path
   style="opacity:0.33;fill:#a62774"
   d="m 396.572,58.881 c 0,0 3.2,1.882 4.861,1.716 1.661,-0.166 -5.017,2.99 -4.861,-1.716 z"
   id="path53" />
	<g
   id="g59">
		<path
   style="fill:#371638"
   d="m 361.12,57.139 c 3.695,-2.349 7.673,-4.229 11.828,-5.605 0.398,-0.132 0.143,-0.731 -0.252,-0.6 -4.211,1.395 -8.231,3.311 -11.974,5.69 -0.353,0.224 0.048,0.738 0.398,0.515 z"
   id="path54" />
		<path
   style="fill:#371638"
   d="m 367.971,62.906 c 1.4,-3.536 3.883,-6.559 7.07,-8.632 0.351,-0.229 -0.049,-0.742 -0.398,-0.515 -3.279,2.133 -5.838,5.273 -7.277,8.908 -0.155,0.39 0.45,0.63 0.605,0.239 z"
   id="path55" />
		<path
   style="fill:#371638"
   d="m 372.746,64.696 c 1.051,-2.874 2.541,-5.557 4.426,-7.968 0.258,-0.33 -0.262,-0.721 -0.52,-0.391 -1.918,2.453 -3.442,5.196 -4.511,8.12 -0.144,0.392 0.461,0.633 0.605,0.239 z"
   id="path56" />
		<path
   style="fill:#371638"
   d="m 423.059,47.417 c 2.573,-0.056 5.149,0.207 7.653,0.805 1.242,0.297 2.464,0.672 3.659,1.123 0.575,0.217 1.143,0.452 1.704,0.704 0.642,0.289 1.306,0.574 1.709,1.179 0.232,0.348 0.722,-0.081 0.492,-0.425 -0.374,-0.562 -0.949,-0.88 -1.545,-1.164 -0.619,-0.294 -1.252,-0.563 -1.891,-0.811 -1.234,-0.479 -2.5,-0.877 -3.786,-1.191 -2.602,-0.635 -5.279,-0.928 -7.957,-0.87 -0.414,0.009 -0.458,0.659 -0.038,0.65 z"
   id="path57" />
		<path
   style="fill:#371638"
   d="m 420.85,51.139 c 4.148,1.516 7.764,4.276 10.337,7.864 0.244,0.341 0.735,-0.088 0.492,-0.425 -2.638,-3.68 -6.373,-6.502 -10.624,-8.056 -0.393,-0.144 -0.599,0.473 -0.205,0.617 z"
   id="path58" />
		<path
   style="fill:#371638"
   d="m 419.176,54.615 c 2.393,1.981 5.044,4.255 5.362,7.56 0.04,0.417 0.678,0.287 0.638,-0.127 -0.335,-3.479 -3.119,-5.888 -5.639,-7.974 -0.321,-0.267 -0.68,0.276 -0.361,0.541 z"
   id="path59" />
	</g>
	<g
   id="g68">
		<path
   style="fill:#532056"
   d="m 450.019,88.313 c 2.241,0.031 4.357,1.318 5.39,3.28 1.058,2.008 0.824,4.632 -0.583,6.529 -0.02,0.028 -0.041,0.068 -0.012,0.128 0.035,0.076 0.124,0.139 0.203,0.145 0.765,0.052 1.398,0.695 1.409,1.433 0.012,0.724 -0.539,1.35 -1.311,1.488 -0.113,0.02 -0.117,0.164 -0.117,0.18 0,0.016 0.003,0.162 0.118,0.183 1.564,0.288 2.117,2.034 2.307,3.05 0.214,1.137 0.134,2.379 -0.23,3.59 -0.747,2.485 -2.555,4.46 -4.836,5.283 -0.074,0.026 -0.118,0.077 -0.132,0.152 -0.015,0.08 0.013,0.17 0.065,0.214 0.023,0.02 0.064,0.041 0.141,0.013 4.088,-1.473 6.487,-6.262 5.134,-10.248 -0.325,-0.956 -0.858,-1.702 -1.502,-2.101 l -0.237,-0.147 0.222,-0.169 c 0.516,-0.394 0.806,-1.007 0.757,-1.598 -0.059,-0.712 -0.54,-1.318 -1.256,-1.582 l -0.222,-0.081 0.125,-0.201 c 1.214,-1.953 1.325,-4.493 0.282,-6.471 -1.089,-2.067 -3.335,-3.424 -5.72,-3.456 -0.076,0.008 -0.117,0.023 -0.147,0.073 -0.038,0.065 -0.039,0.161 -0.001,0.228 0.03,0.057 0.08,0.085 0.153,0.085 z"
   id="path60" />
		<path
   style="fill:#532056"
   d="m 456.822,120.857 c -0.054,0.002 -0.178,0.022 -0.174,0.174 0.026,0.922 -0.377,1.805 -1.08,2.362 -0.838,0.667 -1.906,0.684 -2.656,0.04 -0.107,-0.091 -0.199,-0.053 -0.235,-0.035 -0.076,0.044 -0.111,0.129 -0.093,0.229 0.098,0.538 -0.387,1.024 -0.883,1.122 -0.489,0.099 -1.018,-0.069 -1.616,-0.51 -0.037,-0.027 -0.066,-0.035 -0.089,-0.035 -0.098,0.035 -0.148,0.113 -0.157,0.195 -0.006,0.056 0.004,0.135 0.086,0.196 0.347,0.257 1.252,0.814 2.139,0.441 0.402,-0.168 0.707,-0.492 0.836,-0.887 l 0.069,-0.209 0.198,0.095 c 0.806,0.39 1.733,0.305 2.478,-0.222 0.888,-0.628 1.42,-1.69 1.389,-2.771 -0.006,-0.186 -0.196,-0.188 -0.212,-0.185 z"
   id="path61" />
		<path
   style="fill:#532056"
   d="m 401.645,82.114 c -0.889,-0.084 -1.648,-0.735 -1.887,-1.621 -0.025,-0.091 -0.101,-0.121 -0.133,-0.13 -0.071,-0.017 -0.141,-0.001 -0.191,0.047 -0.664,0.648 -1.738,0.74 -2.445,0.211 -0.68,-0.509 -0.92,-1.523 -0.545,-2.31 0.035,-0.074 0.028,-0.176 -0.016,-0.241 -0.031,-0.046 -0.075,-0.071 -0.132,-0.063 -1.233,0.068 -2.77,0.158 -3.697,-0.989 -0.79,-0.977 -0.861,-2.331 -0.835,-3.4 0.004,-0.153 -0.122,-0.173 -0.177,-0.174 -0.063,-0.002 -0.11,0.015 -0.148,0.046 -0.039,0.032 -0.059,0.077 -0.061,0.138 -0.041,1.66 0.277,2.866 0.972,3.69 0.868,1.029 2.21,1.134 3.404,1.098 l 0.243,-0.007 -0.048,0.238 c -0.178,0.879 0.122,1.743 0.784,2.257 0.712,0.553 1.743,0.589 2.565,0.087 l 0.18,-0.11 0.093,0.189 c 0.4,0.81 1.189,1.345 2.109,1.431 0.097,0.012 0.148,-0.036 0.157,-0.135 0.01,-0.093 -0.035,-0.237 -0.192,-0.252 z"
   id="path62" />
		<path
   style="fill:#532056"
   d="m 397.334,64.136 c 0.382,0.096 0.774,0.007 1.107,-0.092 l 0.128,-0.038 0.08,0.107 c 0.365,0.487 0.92,0.778 1.483,0.778 0.681,-0.002 1.329,-0.398 1.654,-1.01 0.035,-0.066 0.034,-0.128 -0.002,-0.186 -0.042,-0.067 -0.12,-0.101 -0.197,-0.112 -0.053,0.002 -0.094,0.031 -0.125,0.09 -0.27,0.508 -0.766,0.813 -1.327,0.813 -0.563,0 -1.058,-0.303 -1.328,-0.81 -0.033,-0.063 -0.137,-0.106 -0.205,-0.085 l -0.084,0.029 c -0.287,0.096 -0.613,0.204 -0.946,0.17 -0.24,-0.026 -0.535,-0.142 -0.64,-0.391 -0.026,-0.059 -0.1,-0.198 -0.245,-0.158 -0.042,0.011 -0.101,0.056 -0.132,0.12 -0.01,0.02 -0.025,0.06 -0.011,0.093 0.15,0.357 0.424,0.593 0.79,0.682 z"
   id="path63" />
		<path
   style="fill:#532056"
   d="m 382.532,113.633 c -1.469,0 -2.789,-1.017 -3.402,-2.6 -0.262,-0.677 -0.412,-1.45 -0.458,-2.361 l -0.012,-0.215 c -0.041,-0.667 -0.097,-1.58 0.429,-2.106 0.052,-0.053 0.061,-0.159 0.021,-0.244 -0.031,-0.063 -0.08,-0.088 -0.135,-0.086 -0.965,0.107 -1.753,-0.172 -2.171,-0.756 -0.23,-0.323 -0.316,-0.749 -0.229,-1.142 0.077,-0.349 0.282,-0.633 0.576,-0.799 0.107,-0.061 0.103,-0.145 0.081,-0.205 -0.032,-0.086 -0.119,-0.165 -0.245,-0.142 -0.439,0.086 -0.844,-0.047 -1.109,-0.367 -0.283,-0.344 -0.347,-0.833 -0.167,-1.277 0.014,-0.035 0.051,-0.126 -0.076,-0.177 -0.028,-0.011 -0.064,-0.02 -0.102,-0.02 -0.079,0 -0.166,0.034 -0.208,0.136 -0.209,0.516 -0.108,0.935 0.014,1.197 0.18,0.386 0.524,0.686 0.944,0.822 l 0.224,0.073 -0.117,0.205 c -0.286,0.505 -0.305,1.146 -0.048,1.671 0.323,0.661 1.031,1.087 1.942,1.169 l 0.253,0.022 -0.09,0.238 c -0.185,0.485 -0.188,1.038 -0.173,1.659 0.027,1.159 0.201,2.114 0.531,2.92 0.696,1.7 2.138,2.777 3.72,2.771 0.174,-0.002 0.182,-0.165 0.181,-0.199 10e-4,-0.044 -0.013,-0.187 -0.174,-0.187 z"
   id="path64" />
		<path
   style="fill:#532056"
   d="m 420.427,104.105 c -0.04,-0.077 -0.089,-0.088 -0.122,-0.09 -0.077,0 -0.156,0.045 -0.197,0.111 -0.037,0.059 -0.039,0.123 -0.004,0.189 0.262,0.504 0.302,1.09 0.112,1.652 -0.196,0.579 -0.616,1.056 -1.153,1.307 -0.039,0.018 -0.063,0.053 -0.072,0.103 -0.013,0.069 0.008,0.149 0.052,0.194 1.156,1.212 1.226,3.047 0.209,5.456 -0.041,0.097 -0.007,0.174 0.029,0.222 0.05,0.066 0.131,0.108 0.193,0.101 0.015,-10e-4 0.056,-0.007 0.088,-0.083 1.016,-2.405 1.03,-4.296 0.041,-5.623 l -0.118,-0.158 0.16,-0.114 c 1.015,-0.724 1.359,-2.158 0.782,-3.267 z"
   id="path65" />
		<path
   style="fill:#532056"
   d="m 371.3,124.984 c -0.002,-0.071 -0.028,-0.124 -0.079,-0.156 -0.062,-0.039 -0.15,-0.041 -0.23,-0.006 -0.361,0.161 -0.734,0.107 -0.995,-0.144 -0.289,-0.276 -0.381,-0.728 -0.227,-1.125 0.034,-0.088 0.005,-0.125 -0.032,-0.152 -0.085,-0.062 -0.234,-0.064 -0.312,-0.003 -1.14,0.896 -2.703,0.38 -3.555,-0.64 -1.009,-1.207 -0.985,-2.83 -0.787,-3.978 0.027,-0.158 -0.102,-0.239 -0.195,-0.255 -0.144,-0.029 -0.162,0.08 -0.168,0.115 -0.235,1.368 -0.239,3.277 1.08,4.612 0.89,0.901 2.162,1.204 3.241,0.773 l 0.226,-0.09 0.036,0.241 c 0.1,0.666 0.739,1.143 1.448,1.078 l 0.183,-0.016 0.024,0.182 c 0.189,1.395 1.041,2.582 2.278,3.177 0.141,0.068 0.25,-0.031 0.289,-0.114 0.044,-0.092 0.022,-0.161 -0.067,-0.204 -1.294,-0.621 -2.121,-1.884 -2.158,-3.295 z"
   id="path66" />
		<path
   style="fill:#532056"
   d="m 390.059,76.757 c 0.707,-0.591 1.637,-0.866 2.551,-0.792 0.151,0.012 0.281,-0.138 0.281,-0.28 0,-0.162 -0.129,-0.268 -0.281,-0.281 -1.067,-0.087 -2.13,0.272 -2.948,0.956 -0.116,0.097 -0.1,0.296 0,0.397 0.116,0.115 0.281,0.098 0.397,0 z"
   id="path67" />
		<path
   style="fill:#532056"
   d="m 392.021,77.732 c 0.022,-0.051 0.047,-0.101 0.076,-0.149 0.013,-0.022 0.027,-0.043 0.041,-0.064 0.054,-0.076 -0.007,0.004 0.015,-0.023 0.034,-0.041 0.069,-0.081 0.106,-0.119 0.02,-0.02 0.04,-0.039 0.061,-0.057 0.019,-0.017 0.096,-0.068 0.02,-0.019 0.091,-0.059 0.176,-0.116 0.274,-0.162 0.051,-0.024 -0.064,0.024 -0.011,0.005 0.062,-0.023 0.088,-0.031 0.115,-0.039 0.054,-0.015 0.108,-0.027 0.163,-0.035 0.065,-0.01 0.136,-0.075 0.168,-0.129 0.035,-0.06 0.05,-0.149 0.028,-0.216 -0.022,-0.068 -0.064,-0.133 -0.129,-0.168 -0.071,-0.037 -0.137,-0.04 -0.216,-0.028 -0.511,0.078 -0.988,0.446 -1.195,0.919 -0.031,0.072 -0.05,0.138 -0.028,0.216 0.018,0.065 0.068,0.135 0.129,0.168 0.121,0.065 0.321,0.044 0.383,-0.1 z"
   id="path68" />
	</g>
	<path
   style="opacity:0.51;fill:#caa1e2"
   d="m 381.693,32.52 c 2.703,-1.466 3.47,-4.074 0.478,-2.324 -2.993,1.751 -2.356,3.343 -0.478,2.324 z"
   id="path69" />
	<path
   style="opacity:0.51;fill:#caa1e2"
   d="m 383.826,31.534 c -0.145,-0.512 1.432,-2.539 1.808,-1.92 0.376,0.618 -1.634,2.536 -1.808,1.92 z"
   id="path70" />
	<path
   style="opacity:0.51;fill:#caa1e2"
   d="m 393.271,55.618 c -0.592,-0.004 -2.48,1.082 -1.716,2.769 0.764,1.687 2.593,-2.762 1.716,-2.769 z"
   id="path71" />
	<path
   style="opacity:0.51;fill:#caa1e2"
   d="m 416.388,52.932 c -0.397,-0.784 -0.363,-2.688 1.856,-2.685 2.218,0.003 -1.029,4.318 -1.856,2.685 z"
   id="path72" />
	<path
   style="opacity:0.51;fill:#caa1e2"
   d="m 418.116,49.836 c 1.512,-0.728 1.831,-1.817 0.532,-1.464 -1.299,0.353 -1.823,2.086 -0.532,1.464 z"
   id="path73" />
	<g
   id="g90">
		
			<linearGradient
   id="SVGID_00000127007943505636589640000006069033240486854841_"
   gradientUnits="userSpaceOnUse"
   x1="395.19681"
   y1="15.6741"
   x2="395.19681"
   y2="11.6884">
			<stop
   offset="0.1349"
   style="stop-color:#B4C1DB"
   id="stop73" />
			<stop
   offset="1"
   style="stop-color:#E1E9FC"
   id="stop74" />
		</linearGradient>
		<path
   style="fill:url(#SVGID_00000127007943505636589640000006069033240486854841_)"
   d="m 394.284,15.674 c 0,0 -3.464,-2.745 -1.693,-3.82 1.771,-1.074 1.693,3.414 1.693,3.414 0,0 1.372,-3.653 3.351,-2.936 1.978,0.716 -0.796,2.994 -3.351,3.342 z"
   id="path74" />
		
			<linearGradient
   id="SVGID_00000132064233208937341640000009033709436011871646_"
   gradientUnits="userSpaceOnUse"
   x1="392.2468"
   y1="19.849001"
   x2="392.2468"
   y2="12.7757">
			<stop
   offset="0"
   style="stop-color:#AE5400"
   id="stop75" />
			<stop
   offset="0.0109"
   style="stop-color:#AC5300"
   id="stop76" />
			<stop
   offset="0.2284"
   style="stop-color:#823A00"
   id="stop77" />
			<stop
   offset="0.4409"
   style="stop-color:#622700"
   id="stop78" />
			<stop
   offset="0.6444"
   style="stop-color:#4B1900"
   id="stop79" />
			<stop
   offset="0.8351"
   style="stop-color:#3D1100"
   id="stop80" />
			<stop
   offset="1"
   style="stop-color:#380E00"
   id="stop81" />
		</linearGradient>
		<path
   style="fill:url(#SVGID_00000132064233208937341640000009033709436011871646_)"
   d="m 391.995,15.821 c -0.316,-0.696 -0.667,-1.382 -1.188,-1.948 -0.575,-0.626 -1.362,-1.08 -2.226,-1.097 -0.241,-0.005 -0.241,0.369 0,0.374 1.633,0.033 2.507,1.582 3.118,2.921 -0.161,0.156 -0.308,0.336 -0.427,0.556 -1.292,-0.891 -2.978,-1.154 -4.477,-0.645 -0.227,0.077 -0.129,0.438 0.099,0.361 1.411,-0.48 3.004,-0.235 4.211,0.625 -2.222,4.978 6.654,2.997 6.721,0.784 0.037,-1.187 -3.855,-3.251 -5.831,-1.931 z"
   id="path81" />
		
			<linearGradient
   id="SVGID_00000054243546785192282000000011915992267480306350_"
   gradientUnits="userSpaceOnUse"
   x1="396.78931"
   y1="19.867901"
   x2="396.78931"
   y2="15.6698">
			<stop
   offset="0"
   style="stop-color:#FFCD00"
   id="stop82" />
			<stop
   offset="1"
   style="stop-color:#FF9000"
   id="stop83" />
		</linearGradient>
		<path
   style="fill:url(#SVGID_00000054243546785192282000000011915992267480306350_)"
   d="m 397.382,16.928 c -0.036,-0.042 -0.064,-0.06 -0.085,-0.08 -0.227,-0.212 -0.516,-0.42 -0.845,-0.612 1.014,0.802 0.568,2.889 -0.508,3.253 0.463,-0.193 0.876,-0.423 1.198,-0.677 0.435,-0.462 0.727,-1.294 0.24,-1.884 z"
   id="path83" />
		
			<linearGradient
   id="SVGID_00000011001341825257320630000017734865909677558945_"
   gradientUnits="userSpaceOnUse"
   x1="394.604"
   y1="19.867901"
   x2="394.604"
   y2="15.6698">
			<stop
   offset="0"
   style="stop-color:#FFCD00"
   id="stop84" />
			<stop
   offset="1"
   style="stop-color:#FF9000"
   id="stop85" />
		</linearGradient>
		<path
   style="fill:url(#SVGID_00000011001341825257320630000017734865909677558945_)"
   d="m 395.026,15.621 c -0.557,-0.165 -1.136,-0.252 -1.681,-0.22 1.346,0.148 1.995,4.663 -0.396,4.67 0.607,0.022 1.273,-0.062 1.915,-0.225 1.441,-0.304 2.167,-3.585 0.162,-4.225 z"
   id="path85" />
		<path
   style="fill:#ffffcf"
   d="m 391.944,18.91 c -0.412,-0.248 -0.028,-0.97 0.448,-0.604 0.476,0.366 0.005,0.876 -0.448,0.604 z"
   id="path86" />
		<path
   style="opacity:0.47;fill:#b34a2c"
   d="m 397.827,17.751 c 0.008,-0.254 -0.167,-0.549 -0.463,-0.843 0.368,1.213 -3.632,3.316 -5.959,2.749 1.751,1.162 6.374,-0.311 6.422,-1.906 z"
   id="path87" />
		
			<linearGradient
   id="SVGID_00000036963437156169309360000006996137247126550190_"
   gradientUnits="userSpaceOnUse"
   x1="392.53439"
   y1="18.037001"
   x2="392.53439"
   y2="15.6346">
			<stop
   offset="0.1191"
   style="stop-color:#000000"
   id="stop87" />
			<stop
   offset="0.5399"
   style="stop-color:#818100"
   id="stop88" />
			<stop
   offset="0.8575"
   style="stop-color:#DBDB00"
   id="stop89" />
			<stop
   offset="1"
   style="stop-color:#FFFF00"
   id="stop90" />
		</linearGradient>
		<path
   style="opacity:0.32;fill:url(#SVGID_00000036963437156169309360000006996137247126550190_)"
   d="m 391.769,16.287 c 0.672,-1.072 2.894,-0.794 1.733,0.622 -1.162,1.415 -3.25,1.797 -1.733,-0.622 z"
   id="path90" />
	</g>
	<g
   id="g95">
		<path
   style="fill:#371638"
   d="m 463.337,87.11 c 0.701,-0.536 1.506,-0.9 2.373,-1.069 0.149,-0.029 0.234,-0.207 0.196,-0.345 -0.043,-0.155 -0.196,-0.225 -0.345,-0.196 -0.907,0.177 -1.772,0.564 -2.507,1.125 -0.12,0.092 -0.184,0.242 -0.101,0.384 0.07,0.118 0.263,0.193 0.384,0.101 z"
   id="path91" />
		<path
   style="fill:#371638"
   d="m 462.526,85.947 c 0.053,-0.057 0.107,-0.112 0.164,-0.165 0.03,-0.028 0.061,-0.055 0.092,-0.082 0.014,-0.012 0.028,-0.023 0.042,-0.035 -0.001,10e-4 0.057,-0.044 0.036,-0.029 -0.019,0.014 0.023,-0.016 0.026,-0.019 0.018,-0.014 0.037,-0.027 0.056,-0.04 0.03,-0.021 0.06,-0.041 0.091,-0.061 0.069,-0.044 0.14,-0.086 0.213,-0.124 0.032,-0.017 0.065,-0.033 0.098,-0.049 0.021,-0.01 0.041,-0.02 0.062,-0.029 0.08,-0.033 0.102,-0.041 0.123,-0.049 0.034,-0.013 0.069,-0.025 0.103,-0.036 0.156,-0.051 0.317,-0.088 0.479,-0.111 0.146,-0.021 0.239,-0.213 0.196,-0.345 -0.052,-0.159 -0.189,-0.219 -0.345,-0.196 -0.697,0.102 -1.357,0.456 -1.834,0.973 -0.1,0.108 -0.115,0.291 0,0.397 0.109,0.099 0.291,0.115 0.398,0 z"
   id="path92" />
		<path
   style="fill:#371638"
   d="m 426.367,69.548 c -0.016,0.096 -0.038,0.19 -0.066,0.282 -0.014,0.044 -0.029,0.088 -0.045,0.131 -0.006,0.015 -0.03,0.071 -0.01,0.026 -0.01,0.023 -0.021,0.046 -0.031,0.069 -0.042,0.087 -0.089,0.172 -0.142,0.253 -0.025,0.039 -0.052,0.077 -0.079,0.114 -0.048,0.067 0.034,-0.041 -0.018,0.023 -0.016,0.02 -0.032,0.039 -0.049,0.058 -0.06,0.07 -0.125,0.137 -0.194,0.199 -0.037,0.034 -0.076,0.066 -0.115,0.098 0.044,-0.036 -0.02,0.015 -0.023,0.017 -0.02,0.015 -0.041,0.029 -0.062,0.043 -0.077,0.052 -0.156,0.099 -0.239,0.14 -0.022,0.011 -0.045,0.022 -0.068,0.033 -0.005,0.002 -0.081,0.034 -0.026,0.012 -0.047,0.019 -0.094,0.036 -0.143,0.051 -0.139,0.045 -0.244,0.196 -0.196,0.345 0.045,0.139 0.196,0.245 0.345,0.196 0.861,-0.281 1.55,-1.044 1.701,-1.944 0.024,-0.144 -0.038,-0.309 -0.196,-0.345 -0.135,-0.028 -0.318,0.044 -0.344,0.199 z"
   id="path93" />
		<path
   style="fill:#371638"
   d="m 426.933,71.779 c -0.044,0.008 -0.089,0.015 -0.134,0.022 -0.017,0.003 -0.096,0.017 -0.018,0.003 -0.02,0.004 -0.042,0.005 -0.062,0.008 -0.086,0.01 -0.173,0.018 -0.26,0.023 -0.177,0.011 -0.355,0.011 -0.532,0.002 -0.147,-0.008 -0.287,0.134 -0.28,0.28 0.007,0.159 0.123,0.272 0.28,0.281 0.387,0.02 0.774,-0.01 1.156,-0.078 0.145,-0.026 0.24,-0.21 0.196,-0.345 -0.051,-0.156 -0.19,-0.224 -0.346,-0.196 z"
   id="path94" />
		<path
   style="fill:#371638"
   d="m 466.572,122.624 c 0.78,0.175 1.573,0.293 2.37,0.354 0.151,0.011 0.281,-0.137 0.281,-0.281 0,-0.161 -0.129,-0.269 -0.281,-0.281 -0.748,-0.057 -1.489,-0.169 -2.221,-0.334 -0.148,-0.033 -0.304,0.045 -0.345,0.196 -0.039,0.142 0.047,0.313 0.196,0.346 z"
   id="path95" />
	</g>
	<path
   style="fill:#ffffff"
   d="m 388.202,39.51 c 0.983,-0.233 3.095,1.796 2.98,3.277 -0.115,1.481 -6.218,-2.508 -2.98,-3.277 z"
   id="path96" />
	<path
   style="fill:#ffffff"
   d="m 386.584,40.652 c 0.296,-0.353 1.59,2.115 1.064,2.455 -0.525,0.34 -1.36,-2.102 -1.064,-2.455 z"
   id="path97" />
	<path
   style="fill:#ffffff"
   d="m 403.02,37.674 c 0.983,-0.234 3.095,1.796 2.98,3.277 -0.115,1.481 -6.218,-2.508 -2.98,-3.277 z"
   id="path98" />
	<path
   style="fill:#ffffff"
   d="m 401.402,38.815 c 0.296,-0.353 1.59,2.115 1.064,2.455 -0.526,0.341 -1.36,-2.102 -1.064,-2.455 z"
   id="path99" />
</g>








</svg>
